<?xml version="1.0" encoding="UTF-8"?> <!-- Generator: Adobe Illustrator 23.0.5, SVG Export Plug-In . SVG Version: 6.00 Build 0) --> <svg xmlns="http://www.w3.org/2000/svg" xmlns:xlink="http://www.w3.org/1999/xlink" version="1.1" id="레이어_1" x="0px" y="0px" viewBox="0 0 1261 328.2" style="enable-background:new 0 0 1261 328.2;" xml:space="preserve"> <style type="text/css"> .st0{fill:#C1272D;} .st1{fill:#F2F2F2;} </style> <path class="st0" d="M112.4,323.9c-7.3-6.6-14.3-11.5-17.9-12.8c-1.9-0.7-4,0-13.7,5c-4.3,2.2-8.3,3.9-8.9,3.9 c-0.9,0-1.1-0.3-1.5-1.6c-0.7-2.6-2.1-11.4-2.8-17.7c-1.4-12.3-1.4-11.8,1.3-11.1c0.9,0.3,5.2,2.1,9.4,4c4.2,1.9,9.5,4.3,11.7,5.2 l4,1.7l11.7-6c6.4-3.3,11.8-5.9,11.9-5.8c0.3,0.3,1.1,15.8,1.4,27c0.3,10.3,0.1,12.4-1.3,12.4C117.4,328.2,115,326.2,112.4,323.9 L112.4,323.9z M128.3,311.2c-1.1-2.8-0.1-6.9,1.8-8.1c3.1-2.1,25.5-9.4,39.2-12.9c5.5-1.4,8.2-1.9,10.6-1.9h3.2l-0.2,2.9 c-0.4,4.1-0.8,4.9-3.6,6c-5.1,2-45.1,14.2-49,14.9C128.9,312.4,128.7,312.4,128.3,311.2L128.3,311.2z M90.9,291.9 c-1.7-2.8-2.5-5.9-2.8-10.7c-0.3-5.7,0.4-9.9,2.2-13.9c0.8-1.8,1.4-3.3,1.2-3.5c-0.2-0.3-1.9-0.6-3.8-1c-4.8-1-13.7-4.1-19.3-6.6 c-17.8-8-28.1-17.8-31.3-29.9c-2.4-9.2-0.5-22.2,4.7-31.7c7.2-13.1,22.7-27.7,36.1-33.9c7.7-3.6,23.1-7.9,34.6-9.8 c3.6-0.6,7.1-1.2,7.6-1.4c1-0.4,0.9-0.4-0.7-1.2c-0.9-0.5-3.8-1.6-6.5-2.6c-20.2-7.4-38.6-15.9-48.2-22.4 c-10.4-7-24.1-20.1-34.7-33.3C18.3,75.2,9.2,57.5,5,41.2c-1.2-4.8-3.7-19.7-4.7-28.2L0,10.4l3.4,1.9c39.6,21.7,54,31.1,72,46.9 c15.5,13.6,23.6,23.3,56.6,67.3l16.7,22.3l0.5-20.3c0.7-28.7,0.9-31.5,3.4-41.4c6.6-26.6,19.8-49.1,41.1-70.1 c9.2-9.1,19.2-17.5,19.9-16.8c1,1,0.3,45.8-1,61.7c-3.3,39.7-12.3,65.7-30.6,87.6c-7.7,9.3-8.6,10.4-8.6,11c0,0.3,1.3,2.3,2.8,4.4 c9.4,12.8,14.8,23.5,17.5,34.4c3,12.5,0.6,46-4.4,60.4c-2.6,7.5-5.1,10-15,15.3c-11.7,6.2-43.9,18.9-45.4,18 c-0.4-0.3-0.4-2.4-0.2-8.1c0.3-7.1,0.2-7.9-0.4-8.2c-1.1-0.6-3.1,0-6.1,1.8c-3,1.8-28.3,15.2-29.2,15.5 C92.3,293.7,91.7,293.2,90.9,291.9L90.9,291.9z M88.3,200.4c5.6-2,7.1-4.6,6.8-12.2c-0.2-7.1-1.6-9.1-7-10.8 c-3.1-0.9-7.4-0.8-9.6,0.3c-2.1,0.9-4.3,3.2-5.3,5.6c-1,2.3-1,9.1,0,11.7c2,5.3,8.9,7.8,15.2,5.5V200.4z"></path> <g> <path class="st1" d="M344.6,46.1v103.4h-24.9V69.8h-61.2V46.1H344.6z M386.6,239.6c9.6,9.8,14.3,21.7,14.3,35.7 c0,13.9-4.8,25.7-14.3,35.4c-9.6,10-21.1,14.9-34.6,14.9c-13.7,0-25.2-5-34.6-14.9c-9.6-9.8-14.3-21.6-14.3-35.4 c0-14.1,4.8-26,14.3-35.7c9.4-9.8,20.9-14.6,34.6-14.6C365.5,225,377,229.9,386.6,239.6z M334.8,256.6c-4.5,5.3-6.7,11.5-6.7,18.7 c0,7,2.2,13.2,6.7,18.5c4.7,5.5,10.4,8.2,17.3,8.2c6.6,0,12.3-2.7,17-8.2c4.7-5.3,7-11.4,7-18.5c0-7.2-2.3-13.5-7-18.7 c-4.7-5.3-10.4-7.9-17-7.9C345.2,248.7,339.5,251.3,334.8,256.6z M397.3,46.1v38.9H428v23.7h-30.7v106.6h-24.9V46.1H397.3z"></path> <path class="st1" d="M490.4,46.1v79.7h61.2v23.7h-86.1V46.1H490.4z M605.4,224.2v103.1h-86.1V224.2H605.4z M544.2,303.5h36.3v-55.6 h-36.3V303.5z M604.3,46.1v38.9h30.7v23.7h-30.7v106.6h-24.9V46.1H604.3z"></path> <g> <path class="st1" d="M643.8,226.4c2.7,2.9,5.5,5,8.3,6.4c2.8,1.4,6.7,2.1,11.7,2.1h115.7V254h-57.9v8.6h36.9v57.9h-82.8 c-4,0-7.4-1.2-10.3-3.7c-2.9-2.4-4.3-6-4.3-10.6v-43.6h35.2V254h-34.6c-7.9,0-14.7-1.6-20.6-4.7c-5.9-3.1-10.9-7.3-15-12.5 L643.8,226.4z M659.9,158.3h96.8v44.2h-70.8v2.8c0,3.4,1.7,5.1,5.1,5.1h67.4V229h-83.7c-1.9,0-3.7-0.4-5.4-1.1 c-1.8-0.7-3.3-1.7-4.7-3c-1.4-1.2-2.5-2.7-3.3-4.5c-0.8-1.7-1.2-3.6-1.2-5.6v-30.1h70.8v-7.5h-71V158.3z M686.1,294.6 c0,1.9,0.3,3.2,1,4.1c0.7,0.9,2.2,1.3,4.4,1.3h41.6v-17.4h-47V294.6z"></path> <path class="st1" d="M796.6,239.2c6.5-1.6,12.9-3.7,19.2-6.3c6.3-2.6,12-5.8,16.9-9.8c5-4,9-8.8,12.2-14.3 c3.1-5.6,4.7-12.1,4.7-19.6v-3.9h-52.4v-20.4h77.7v21.7c0,8.1-1,15.4-3.1,21.8c-2.1,6.4-4.9,12.2-8.6,17.2 c-3.7,5.1-8,9.5-12.9,13.3c-4.9,3.8-10.3,7.1-16.1,10c-5.8,2.9-11.9,5.3-18.3,7.4c-6.4,2.1-12.8,3.8-19.3,5.3V239.2z M889.5,279.8 c0.2-1.7,0.6-4.2,0.9-7.5c0.4-3.2,0.6-6.9,0.6-11v-103h24.5v41.4h23.8v20.4h-23.8v40.1c0,1.5,0,3.5,0,5.9c0,2.4-0.2,5.1-0.5,7.9 c-0.3,2.8-0.8,5.7-1.4,8.6c-0.6,2.9-1.5,5.5-2.6,7.8L889.5,279.8z"></path> <path class="st1" d="M1013.7,168c5.4,2.1,10.1,5.1,14,9c3.9,3.9,6.9,8.5,9,14c2.1,5.4,3.2,11.5,3.2,18.1c0,6.6-1.1,12.6-3.2,18.1 c-2.1,5.4-5.1,10.1-9,13.9c-3.9,3.8-8.5,6.8-14,8.9c-5.4,2.1-11.4,3.2-17.9,3.2c-6.6,0-12.6-1.1-18.1-3.2 c-5.4-2.1-10.1-5.1-14-8.9c-3.9-3.8-6.9-8.4-9-13.9c-2.1-5.4-3.2-11.5-3.2-18.1c0-6.6,1.1-12.6,3.2-18.1c2.1-5.4,5.1-10.1,9-14 c3.9-3.9,8.5-6.9,14-9c5.4-2.1,11.5-3.2,18.1-3.2C1002.3,164.8,1008.3,165.9,1013.7,168z M1010.9,224.2c3.8-3.7,5.7-8.8,5.7-15.2 c0-6.4-1.9-11.5-5.7-15.3c-3.8-3.8-8.8-5.7-15.1-5.7c-6.4,0-11.5,1.9-15.3,5.7c-3.8,3.8-5.7,8.9-5.7,15.3c0,6.4,1.9,11.4,5.7,15.2 c3.8,3.7,8.9,5.6,15.3,5.6C1002.1,229.8,1007.1,227.9,1010.9,224.2z M1081.6,158.3h-24.5v103c0,4.1-0.2,7.8-0.6,11 c-0.4,3.2-0.7,5.7-0.9,7.5l21.5,10.5c1.1-2.2,2-4.8,2.6-7.8c0.6-2.9,1.1-5.8,1.4-8.6c0.3-2.8,0.5-5.4,0.5-7.9c0-2.4,0-4.4,0-5.9 V158.3z"></path> <path class="st1" d="M1115.7,254.5c3,3.2,6,5.4,9.1,6.6c3.1,1.1,6.8,1.7,11.1,1.7h114v20.4h-116.1c-7.5,0-14.4-1.8-20.7-5.4 c-6.3-3.6-11.8-8.3-16.4-14L1115.7,254.5z M1143.2,237.8c-1.9,0-3.7-0.4-5.4-1.1c-1.8-0.7-3.3-1.8-4.7-3.1 c-1.4-1.3-2.5-2.8-3.3-4.5c-0.8-1.7-1.2-3.5-1.2-5.5v-60.5h96.6v20.4h-71.7v28.8c0,1.8,0.4,3.1,1.2,4c0.8,0.9,2.3,1.4,4.4,1.4 h67.6v20H1143.2z"></path> </g> </g> <g> <path class="st0" d="M1118.3,61c-1.1,0-1.8,0.2-2.3,0.6c-0.4,0.4-0.7,1.1-0.7,2.2V90c0,1.4,0.3,2.4,0.9,3c0.6,0.6,1.6,0.9,3,0.9 c6.6,0,9.9-5,9.9-15c0-5.5-0.8-9.8-2.3-12.8C1125.1,62.7,1122.3,61,1118.3,61z"></path> <path class="st0" d="M797,67.6c-0.9-1.4-1.8-2.5-3-3.2c-1.1-0.8-2.3-1.2-3.4-1.2c-1.9,0-3.4,0.8-4.5,2.5c-0.9,1.3-1.3,2.8-1.3,4.5 c0,2.5,0.5,5.5,1.6,8.8c1,3.3,2.3,6.3,3.9,8.9c0.7,1.1,1.6,2,2.6,2.6c1,0.7,2.1,1,3.1,1c1.7,0,3.1-0.6,4.1-1.9c1-1.3,1.6-3,1.6-5.1 c0-2.7-0.4-5.7-1.3-8.8C799.5,72.5,798.4,69.8,797,67.6z"></path> <path class="st0" d="M1242,26.8H669c-4.4,0-8,3.6-8,8V120c0,4.4,3.6,8,8,8h573c4.4,0,8-3.6,8-8V34.8 C1250,30.4,1246.4,26.8,1242,26.8z M767,98.8c-0.5,0.7-1.2,1.3-2.1,1.7c-1.9,0.9-4.5,1.3-7.8,1.3c-4.4,0-7.5-1.2-9.4-3.5 c-0.9-1-1.6-2.3-2.2-3.9c-0.6-1.6-1.3-4-2.1-7.4c-0.5-2.1-1.2-3.6-2-4.5c-0.8-0.9-1.9-1.4-3.4-1.4c-0.9,0-1.4,0.3-1.6,0.8 c-0.2,0.5-0.4,1.7-0.4,3.6c0,2.9,0.2,5.1,0.5,6.7c0.1,0.5,0.3,0.8,0.5,1c0.2,0.2,0.7,0.6,1.3,0.9c1.4,0.7,2,1.7,2,2.9 c0,1.5-0.9,2.5-2.8,3.2c-1.9,0.6-5.1,0.9-9.5,0.9c-8.3,0-12.5-1.6-12.5-4.7c0-0.5,0.1-1,0.4-1.3c0.2-0.3,0.8-0.8,1.7-1.4 c1-0.7,1.7-1.4,2-2.3c0.3-0.9,0.6-2.4,0.7-4.6c0.1-1.6,0.2-7.3,0.2-17.2c0-3.1-0.2-5.3-0.5-6.4s-1-1.9-2-2.5c-1-0.5-1.7-0.9-2-1.3 c-0.3-0.4-0.5-0.9-0.5-1.5c0-0.8,0.3-1.6,1-2.2c0.6-0.6,1.5-1.1,2.7-1.4c1-0.2,2.3-0.4,4-0.4c0.7,0,2.6,0.1,5.6,0.3 c0.6,0,1.5,0.1,2.7,0.1c2,0,4.7-0.1,8.1-0.4c2.1-0.2,3.6-0.2,4.5-0.2c4.8,0,8.8,1.2,12,3.5c2.8,2.1,4.3,5,4.3,8.7 c0,2.1-0.5,4-1.5,5.7c-1,1.7-2.4,3-4.1,3.8c-0.7,0.4-1.1,0.8-1.1,1.3c0,0.7,0.6,1.2,1.7,1.6c2.4,0.9,4.1,2.1,5.2,3.9 c1.1,1.7,1.9,4.4,2.4,8c0.2,1.5,0.5,2.4,0.9,2.9c0.4,0.4,1.3,0.9,2.7,1.3c0.4,0.1,0.8,0.4,1.1,0.9c0.3,0.4,0.4,0.9,0.4,1.5 C767.8,97.3,767.5,98,767,98.8z M813.5,92.3c-3,3.6-6.9,6.1-11.6,7.7c-2.9,0.9-5.9,1.4-8.9,1.4c-3.9,0-7.6-0.8-11.2-2.4 c-4.3-2-7.7-4.9-10.1-8.9c-2.4-3.8-3.5-8-3.5-12.7c0-5.4,1.5-10.1,4.6-14.2c2.7-3.6,6.3-6.3,10.9-8c3.1-1.2,6.5-1.8,10.2-1.8 c5.8,0,10.8,1.7,15.2,5c2.9,2.3,5.3,5.2,7.1,8.8c1.8,3.6,2.7,7.2,2.7,10.8C818.8,83.3,817,88.1,813.5,92.3z M867.3,92.3 c-3,3.6-6.9,6.1-11.6,7.7c-2.9,0.9-5.9,1.4-8.9,1.4c-3.9,0-7.6-0.8-11.2-2.4c-4.3-2-7.7-4.9-10.1-8.9c-2.4-3.8-3.5-8-3.5-12.7 c0-5.4,1.5-10.1,4.6-14.2c2.7-3.6,6.3-6.3,10.9-8c3.1-1.2,6.5-1.8,10.2-1.8c5.8,0,10.8,1.7,15.2,5c2.9,2.3,5.3,5.2,7.1,8.8 c1.8,3.6,2.7,7.2,2.7,10.8C872.6,83.3,870.8,88.1,867.3,92.3z M931.2,100.3c-1.1,0.4-2.2,0.6-3.4,0.7c-1.2,0.1-3,0.2-5.5,0.2 c-3.8,0-6.6-0.3-8.5-0.8c-2.1-0.6-3.1-1.6-3.1-3.1c0-0.5,0.1-1,0.4-1.3c0.3-0.3,1-1,2.1-1.9c0.6-0.5,1-1.4,1.2-2.7 c0.2-1.4,0.3-3.6,0.3-6.9c0-1.8-0.1-3-0.3-3.5c-0.2-0.6-0.5-0.8-1.1-0.8c-0.6,0-1.2,0.4-1.8,1.3c-0.6,0.9-1.5,2.6-2.6,5.2l-4.1,9.1 c-0.7,1.5-1.3,2.6-1.7,3.1c-0.4,0.5-0.9,0.8-1.4,0.8c-0.5,0-0.9-0.2-1.3-0.6c-0.2-0.3-0.8-1.3-1.7-3c-0.9-1.7-1.6-3.2-2.2-4.6 l-4.5-10c-0.6-1.4-1.2-2.1-1.9-2.1c-0.7,0-1.1,0.6-1.2,1.8c-0.2,2.7-0.2,5.1-0.2,7.4c0,2.3,0.1,3.9,0.3,4.8 c0.2,0.5,0.4,0.9,0.6,1.1c0.3,0.2,1,0.6,2.1,1.2c0.7,0.4,1.1,1,1.1,2c0,2.5-3.2,3.8-9.7,3.8c-5.4,0-8.2-1.2-8.2-3.7 c0-0.6,0.1-1.1,0.4-1.4c0.3-0.3,1-0.7,2.2-1.3c0.7-0.3,1.2-0.8,1.5-1.4c0.3-0.6,0.5-1.7,0.7-3.4c0.2-1.8,0.4-4.8,0.6-8.9 c0.2-4.1,0.3-7.6,0.3-10.6c0-3.7-0.3-6.2-0.8-7.5c-0.2-0.5-0.4-0.8-0.7-1c-0.3-0.2-0.7-0.5-1.5-0.9c-1.6-0.8-2.4-1.8-2.4-3 c0-0.8,0.3-1.5,0.9-2.2c0.6-0.7,1.4-1.1,2.4-1.4c1-0.3,2.3-0.5,4-0.8c1.7-0.2,3.1-0.3,4.2-0.3c2.9,0,4.9,0.2,6.1,0.7 c0.6,0.2,1,0.5,1.4,0.9c0.3,0.4,0.8,1.2,1.5,2.4l7,12.9c0.8,1.4,1.3,2.3,1.6,2.6c0.3,0.3,0.7,0.5,1.2,0.5c0.5,0,0.8-0.2,1.2-0.5 c0.3-0.3,0.8-1,1.2-1.9l4.8-9.3c0.6-1.2,1-2,1.1-2.3c1.1-2.3,2.2-3.7,3.3-4.5c1.4-1,3.9-1.5,7.5-1.5c6.4,0,9.6,1.5,9.6,4.4 c0,0.7-0.1,1.2-0.4,1.6c-0.2,0.4-0.8,0.9-1.5,1.4c-1,0.8-1.7,1.9-2,3.4c-0.5,3.1-0.8,6.9-0.8,11.3c0,5.7,0.3,10.8,0.8,15.1 c0.1,1.1,0.3,1.8,0.6,2.2c0.3,0.4,1,1,2.2,1.7c0.8,0.5,1.2,1.3,1.2,2.2C934.4,98.5,933.3,99.6,931.2,100.3z M1005.9,83.8 c-0.6,0.6-1.3,1-2.2,1.1c-0.8,0.1-1.3,0.3-1.5,0.5c-0.2,0.2-0.5,0.8-0.7,1.7c-1,3.6-2.9,6.6-5.7,9c-1.9,1.6-4.3,2.9-7,3.8 c-2.7,0.9-5.6,1.4-8.6,1.4c-4.9,0-9.5-1.1-13.6-3.4c-4.2-2.3-7.4-5.6-9.7-9.7c-1.8-3.5-2.8-7.2-2.8-11.2c0-4.1,1.1-7.9,3.3-11.6 c2.3-3.9,5.6-7,9.8-9.1c3.7-1.9,7.9-2.8,12.6-2.8c2.9,0,5.7,0.4,8.3,1.2c1.2,0.4,2,0.6,2.4,0.6c0.4,0,1.4-0.3,2.8-0.8 c0.5-0.2,1-0.2,1.5-0.2c1.3,0,2.5,0.7,3.6,2.2c1.8,2.4,2.8,5,2.8,7.8c0,1.9-0.5,3.5-1.5,4.7c-1,1.2-2.3,1.8-3.9,1.8 c-1.3,0-2.6-0.5-3.8-1.4c-0.4-0.3-1.3-1.3-2.8-3.2c-2.5-3-5.3-4.6-8.5-4.6c-2.9,0-5.2,1.1-7,3.2c-1.7,2.1-2.6,5-2.6,8.6 c0,5.4,1.4,10,4.1,13.7c1,1.4,2.3,2.5,3.7,3.3c1.4,0.8,2.9,1.2,4.3,1.2c1.2,0,2.1-0.4,2.9-1.2c0.8-0.8,1.1-1.8,1.1-3 c0-1.1-0.3-1.8-0.9-2.3c-0.2-0.2-0.5-0.3-0.7-0.3c-0.2,0-0.9-0.1-1.9-0.1c-1,0-1.8-0.3-2.4-0.9c-0.6-0.6-1-1.4-1-2.3 c0-1.9,1.2-3.2,3.7-4c2.7-0.9,5.9-1.3,9.4-1.3c3.8,0,7,0.4,9.6,1.2c2.5,0.8,3.7,2.2,3.7,4.2C1006.8,82.5,1006.5,83.2,1005.9,83.8z M1062.8,58.9c-0.3,0.3-1,0.8-2.1,1.5c-1.2,0.7-1.9,1.4-2,2.2c-0.2,0.8-0.3,3.7-0.3,8.7v8.2c0,5-0.4,8.5-1.1,10.6 c-1.6,4.4-5.1,7.5-10.5,9.5c-3.3,1.2-7,1.8-11.1,1.8c-7.2,0-13-1.7-17.4-5.2c-2.1-1.7-3.6-3.6-4.4-5.9c-0.8-2.2-1.2-5.4-1.2-9.7 c0-1.6,0.1-4.3,0.2-8.1c0.1-2.7,0.1-4.4,0.1-5.3c0-1.9-0.1-3.2-0.4-3.9c-0.3-0.7-0.9-1.4-1.8-2c-1.5-1-2.2-2-2.2-3.2 c0-0.9,0.4-1.7,1.1-2.3c0.8-0.7,1.7-1.1,3-1.4c2.5-0.5,5.4-0.7,8.8-0.7c3.7,0,6.8,0.3,9.2,0.8c2.4,0.5,3.6,1.8,3.6,3.7 c0,0.9-0.3,1.7-1,2.3c-0.2,0.1-0.8,0.5-2,1c-0.7,0.3-1.2,0.9-1.5,1.7c-0.3,0.8-0.4,2.2-0.4,4.1c0,2-0.1,6.2-0.3,12.7 c-0.1,3.9,0.9,6.8,3.1,8.8c1.8,1.7,4.1,2.5,7,2.5c1.8,0,3.4-0.3,4.9-1c1.5-0.7,2.6-1.6,3.3-2.7c0.6-0.9,1-1.9,1.2-2.9 c0.2-1.1,0.3-2.6,0.3-4.4v-7.4c-0.1-5.7-0.3-9-0.5-10c-0.2-1-0.9-1.7-2.2-2.3c-1.2-0.5-2-1-2.4-1.4c-0.4-0.4-0.6-1-0.6-1.6 c0-1.4,0.8-2.3,2.4-3c1.6-0.6,4.2-0.9,7.7-0.9c3.5,0,6,0.3,7.6,0.9c1.6,0.6,2.3,1.6,2.3,2.9C1063.2,58.1,1063.1,58.6,1062.8,58.9z M1087.1,90.7c0.2,0.7,0.4,1.2,0.7,1.5c0.3,0.3,0.9,0.7,1.7,1.1c1.5,0.7,2.2,1.7,2.2,2.9c0,1.8-1.4,3-4.1,3.7 c-3,0.7-6.6,1.1-10.9,1.1c-7.3,0-11-1.4-11-4.2c0-1,0.7-2,2.2-2.8c1.1-0.7,1.8-1.6,2-2.8c0.4-2.6,0.6-8,0.6-16.3 c0-5.8-0.3-9.5-0.9-11.1c-0.3-0.9-1.1-1.8-2.3-2.5c-0.9-0.6-1.5-1.1-1.9-1.5c-0.3-0.4-0.5-0.9-0.5-1.6c0-1,0.5-1.7,1.4-2.3 c0.9-0.6,2.6-1.1,4.9-1.5c2.8-0.6,5.7-0.8,8.5-0.8c2.6,0,5,0.2,7.3,0.7c3.1,0.6,4.6,1.9,4.6,3.9c0,0.7-0.2,1.1-0.5,1.5 c-0.3,0.3-1.1,0.8-2.3,1.4c-1,0.5-1.7,1.7-2,3.4c-0.3,1.8-0.5,5.2-0.5,10.3C1086.5,83.4,1086.7,88.7,1087.1,90.7z M1145.5,84.8 c-0.7,2.6-1.7,4.8-3,6.6c-2.6,3.8-6.2,6.4-10.8,8c-2.7,0.9-5.6,1.4-8.6,1.4l-4.1-0.1l-3.5-0.1c-2.7-0.1-5.1-0.1-7.2-0.1h-2.4 c-1.4,0-3,0.1-4.8,0.2c-1.1,0.1-1.9,0.1-2.3,0.1c-1.5,0-2.7-0.3-3.7-1c-0.9-0.7-1.4-1.6-1.4-2.7c0-0.8,0.2-1.4,0.6-1.8 s1.1-0.8,2-1.1c0.9-0.2,1.5-0.6,1.8-1.1c0.3-0.5,0.6-1.5,0.7-3c0.2-1.7,0.3-5,0.5-9.9c0.1-4.9,0.2-9.7,0.2-14.5 c0-1.9-0.1-3.2-0.4-3.8c-0.3-0.6-1-1.1-2.1-1.5c-1.6-0.6-2.3-1.6-2.3-3c0-1.1,0.5-2,1.6-2.6c1.1-0.6,2.6-0.9,4.5-0.9 c0.6,0,1.4,0,2.2,0c1.9,0.1,3.3,0.1,4.1,0.1c3.2,0,6.9-0.1,10.9-0.3c0.9,0,1.9-0.1,3.2-0.1c5.2,0,9.2,0.6,12.2,1.8 c4.5,1.8,7.8,4.7,10.1,8.8c2,3.6,3,8,3,13C1146.6,79.7,1146.2,82.3,1145.5,84.8z M1194.4,93.8c-0.7,2-1.6,3.8-2.6,5.4 c-0.5,0.8-0.9,1.3-1.3,1.5c-0.3,0.3-0.8,0.4-1.3,0.4c-0.4,0-1-0.1-1.9-0.2c-1.4-0.3-3.4-0.4-5.8-0.5h-28.6c-1.1,0-2-0.3-2.7-0.8 c-0.6-0.5-0.9-1.2-0.9-2.1c0-0.7,0.1-1.1,0.4-1.4c0.3-0.3,0.9-0.7,1.9-1.1c0.7-0.3,1.2-0.7,1.5-1.1c0.3-0.4,0.6-1.1,0.8-1.9 c0.7-3.4,1.1-8,1.1-13.7c0-8.7-0.5-14.2-1.6-16.4c-0.2-0.5-0.5-0.8-0.7-0.9c-0.3-0.2-0.8-0.4-1.7-0.6c-1.3-0.4-1.9-1.2-1.9-2.6 c0-0.7,0.2-1.4,0.6-1.9c0.4-0.6,1-0.9,1.7-1.1c0.9-0.2,2.6-0.3,5.1-0.3h17.4c3.5,0,6.1-0.1,7.7-0.2c1.6-0.1,3.2-0.4,4.7-0.9 c0.5-0.1,0.8-0.2,1.1-0.2c1.2,0,2.2,0.6,3.1,1.9c1.5,2,2.2,4.5,2.2,7.4c0,1.5-0.3,2.6-0.9,3.5c-0.6,0.8-1.5,1.3-2.5,1.3 c-0.7,0-1.3-0.2-1.7-0.5c-0.4-0.3-1-1-1.7-2c-1-1.5-2.2-2.5-3.8-3c-1.5-0.5-4-0.8-7.5-0.8c-2.6,0-4.2,0.5-4.7,1.4 c-0.3,0.5-0.5,1.2-0.5,2s-0.1,3-0.1,6.4c0,1.4,0.2,2.2,0.7,2.5c0.5,0.3,1.6,0.5,3.5,0.5c0.9,0,1.6-0.2,2.1-0.6 c0.4-0.4,0.7-1.1,0.8-2.1c0.2-1.3,0.3-2.2,0.5-2.7c0.2-0.5,0.5-0.9,0.9-1.3c0.5-0.4,1-0.6,1.7-0.6c0.9,0,1.7,0.4,2.4,1.3 c0.5,0.7,0.9,1.8,1.2,3.5c0.3,1.7,0.5,3.4,0.5,5.2c0,3.6-0.6,6.5-1.7,8.7c-0.6,1.2-1.5,1.9-2.8,1.9c-0.8,0-1.3-0.2-1.6-0.6 c-0.3-0.4-0.5-1.2-0.7-2.4c-0.3-2.5-1.8-3.8-4.5-3.8c-1,0-1.7,0.3-2.1,1c-0.4,0.6-0.6,1.8-0.6,3.6c0,1.1,0.1,2.4,0.2,4.1 c0.1,1.7,0.3,2.8,0.5,3.3c0.2,0.7,0.7,1.1,1.7,1.4c0.9,0.3,2.5,0.4,4.7,0.4c3.4,0,5.9-0.4,7.6-1.3c1.7-0.9,3.1-2.4,4.2-4.7 c0.6-1.3,1.2-2.2,1.7-2.6c0.5-0.4,1.2-0.7,2-0.7c0.9,0,1.7,0.4,2.3,1.2c0.6,0.8,0.9,1.9,0.9,3.1 C1195.5,90.1,1195.1,91.8,1194.4,93.8z"></path> <path class="st0" d="M850.8,67.6c-0.9-1.4-1.8-2.5-3-3.2c-1.1-0.8-2.3-1.2-3.4-1.2c-1.9,0-3.4,0.8-4.5,2.5 c-0.9,1.3-1.3,2.8-1.3,4.5c0,2.5,0.5,5.5,1.6,8.8c1,3.3,2.3,6.3,3.9,8.9c0.7,1.1,1.6,2,2.6,2.6c1,0.7,2.1,1,3.1,1 c1.7,0,3.1-0.6,4.1-1.9c1-1.3,1.6-3,1.6-5.1c0-2.7-0.4-5.7-1.3-8.8C853.3,72.5,852.2,69.8,850.8,67.6z"></path> <path class="st0" d="M738.5,61.1c-0.9,0-1.5,0.2-1.9,0.6c-0.4,0.4-0.6,1.1-0.6,2.2l-0.4,7.9c0,0.1,0,0.2,0,0.3 c0,0.8,0.1,1.4,0.4,1.6c0.2,0.3,0.7,0.4,1.4,0.4c2,0,3.4-0.5,4.3-1.5c0.9-1,1.4-2.7,1.4-4.9C743.2,63.2,741.6,61.1,738.5,61.1z"></path> </g> </svg> 